<?xml version="1.0" encoding="utf-8"?>
<!-- Generator: Adobe Illustrator 24.0.1, SVG Export Plug-In . SVG Version: 6.00 Build 0)  -->
<svg version="1.1" id="图层_1" xmlns="http://www.w3.org/2000/svg" xmlns:xlink="http://www.w3.org/1999/xlink" x="0px" y="0px"
	 viewBox="0 0 16 16" style="enable-background:new 0 0 16 16;" xml:space="preserve">
<style type="text/css">
	.st0{fill:#595959;}
</style>
<title>icon/light/normal/output/icons/detail</title>
<g id="icon_x2F_light_x2F_normal_x2F_output_x2F_icons_x2F_detail">
	<g id="编组" transform="translate(2.000000, 0.500000)">
		<path id="路径" class="st0" d="M11,1.5c0.5,0,1,0.4,1,1l0,0.1v10.9c0,0.5-0.4,1-0.9,1.1l-0.1,0H1c-0.5,0-1-0.4-1-1l0-0.1V2.6
			c0-0.5,0.4-1,0.9-1.1l0.1,0h2c0.3,0,0.5,0.2,0.5,0.5c0,0.2-0.2,0.4-0.4,0.5L3,2.5H1c0,0,0,0,0,0l0,0v10.9c0,0,0,0,0,0.1l0,0H11
			c0,0,0,0,0,0l0,0V2.6c0,0,0,0,0-0.1l0,0H9C8.7,2.5,8.5,2.3,8.5,2c0-0.2,0.2-0.4,0.4-0.5l0.1,0H11z"/>
		<path id="矩形" class="st0" d="M8.1,0.5H3.9C3.4,0.5,3,0.9,3,1.5v1c0,0.6,0.4,1,0.9,1h4.3c0.5,0,0.9-0.4,0.9-1v-1
			C9,0.9,8.6,0.5,8.1,0.5z M3.9,1.5h4.3v1H3.9V1.5z"/>
		<path id="直线" class="st0" d="M9,6.5c0.3,0,0.5,0.2,0.5,0.5c0,0.2-0.2,0.4-0.4,0.5L9,7.5H3C2.7,7.5,2.5,7.3,2.5,7
			c0-0.2,0.2-0.4,0.4-0.5l0.1,0H9z"/>
		<path id="直线备份-2" class="st0" d="M9,9.5c0.3,0,0.5,0.2,0.5,0.5c0,0.2-0.2,0.4-0.4,0.5l-0.1,0H3c-0.3,0-0.5-0.2-0.5-0.5
			c0-0.2,0.2-0.4,0.4-0.5l0.1,0H9z"/>
	</g>
</g>
</svg>
