<?xml version="1.0" encoding="UTF-8"?>
<svg width="13px" height="13px" viewBox="0 0 13 13" version="1.1" xmlns="http://www.w3.org/2000/svg" xmlns:xlink="http://www.w3.org/1999/xlink">
    <title>icons/light/normal/output/icons/output</title>
    <g id="icons/light/normal/output/icons/output" stroke="none" stroke-width="1" fill="none" fill-rule="evenodd">
        <g id="编组" fill="#595959" fill-rule="nonzero">
            <path d="M6.5,0 C6.74545989,0 6.94960837,0.176875161 6.99194433,0.410124368 L7,0.5 L7,9.5 C7,9.77614237 6.77614237,10 6.5,10 C6.25454011,10 6.05039163,9.82312484 6.00805567,9.58987563 L6,9.5 L6,0.5 C6,0.223857625 6.22385763,0 6.5,0 Z" id="直线-2"></path>
            <path d="M6.14644661,0.146446609 C6.32001296,-0.0271197425 6.58943736,-0.0464048927 6.7843055,0.0885911588 L6.85355339,0.146446609 L11.8535534,4.31953323 C12.0488155,4.51479538 12.0488155,4.83137787 11.8535534,5.02664001 C11.679987,5.20020636 11.4105626,5.21949151 11.2156945,5.08449546 L11.1464466,5.02664001 L6.5,1.207 L1.85355339,5.02664001 C1.67998704,5.20020636 1.41056264,5.21949151 1.2156945,5.08449546 L1.14644661,5.02664001 C0.972880258,4.85307366 0.953595107,4.58364926 1.08859116,4.38878112 L1.14644661,4.31953323 L6.14644661,0.146446609 Z" id="直线"></path>
            <path d="M12.5,7 C12.7454599,7 12.9496084,7.17687516 12.9919443,7.41012437 L13,7.5 L13,11.9444444 C13,12.4915351 12.5794293,12.936896 12.0447747,12.993846 L11.9285714,13 L1.07142857,13 C0.522040068,13 0.0648434376,12.5911118 0.0063256136,12.0600166 L0,11.9444444 L0,7.5 C0,7.22385763 0.223857625,7 0.5,7 C0.745459889,7 0.94960837,7.17687516 0.991944331,7.41012437 L1,7.5 L1,11.9444444 C1,11.9627652 1.01283402,11.9813496 1.03399804,11.9917036 L1.07142857,12 L11.9285714,12 C11.9569394,12 11.9792295,11.9875225 11.9909375,11.9710616 L12,11.9444444 L12,7.5 C12,7.22385763 12.2238576,7 12.5,7 Z" id="路径"></path>
        </g>
    </g>
</svg>