<?xml version="1.0" encoding="UTF-8"?>
<svg width="22px" height="22px" viewBox="0 0 22 22" version="1.1" xmlns="http://www.w3.org/2000/svg" xmlns:xlink="http://www.w3.org/1999/xlink">
    <title>add node</title>
    <defs>
        <path d="M10.5,0 C16.2989899,0 21,4.70101013 21,10.5 C21,16.2989899 16.2989899,21 10.5,21 C4.70101013,21 0,16.2989899 0,10.5 C0,4.70101013 4.70101013,0 10.5,0 Z M10.5,1.5 C5.52943725,1.5 1.5,5.52943725 1.5,10.5 C1.5,15.4705627 5.52943725,19.5 10.5,19.5 C15.4705627,19.5 19.5,15.4705627 19.5,10.5 C19.5,5.52943725 15.4705627,1.5 10.5,1.5 Z M10.5,4.5 C10.8681898,4.5 11.1744126,4.76531274 11.2379165,5.11518655 L11.25,5.25 L11.25,9.75 L15.75,9.75 C16.1642136,9.75 16.5,10.0857864 16.5,10.5 C16.5,10.8681898 16.2346873,11.1744126 15.8848134,11.2379165 L15.75,11.25 L11.25,11.25 L11.25,15.75 C11.25,16.1642136 10.9142136,16.5 10.5,16.5 C10.1318102,16.5 9.82558744,16.2346873 9.7620835,15.8848134 L9.75,15.75 L9.75,11.25 L5.25,11.25 C4.83578644,11.25 4.5,10.9142136 4.5,10.5 C4.5,10.1318102 4.76531274,9.82558744 5.11518655,9.7620835 L5.25,9.75 L9.75,9.75 L9.75,5.25 C9.75,4.83578644 10.0857864,4.5 10.5,4.5 Z" id="path-1"></path>
    </defs>
    <g id="onnx-modifier" stroke="none" stroke-width="1" fill="none" fill-rule="evenodd">
        <g id="nav/button/normal备份-5" transform="translate(-13.000000, -13.000000)">
            <g id="add-node" transform="translate(13.500000, 13.500000)">
                <mask id="mask-2" fill="white">
                    <use xlink:href="#path-1"></use>
                </mask>
                <use id="形状结合" fill="#000000" fill-rule="nonzero" xlink:href="#path-1"></use>
                <g id="0-color/Dark/3Secondary" mask="url(#mask-2)" fill="#8D98AA">
                    <g transform="translate(-1.500000, -1.500000)" id="矩形">
                        <rect x="0" y="0" width="24" height="24"></rect>
                    </g>
                </g>
            </g>
        </g>
    </g>
</svg>