<?xml version="1.0" encoding="utf-8"?>
<!-- Generator: Adobe Illustrator 24.0.1, SVG Export Plug-In . SVG Version: 6.00 Build 0)  -->
<svg version="1.1" id="图层_1" xmlns="http://www.w3.org/2000/svg" xmlns:xlink="http://www.w3.org/1999/xlink" x="0px" y="0px"
	 viewBox="0 0 24 24" style="enable-background:new 0 0 24 24;" xml:space="preserve">
<style type="text/css">
	.st0{filter:url(#Adobe_OpacityMaskFilter);}
	.st1{fill-rule:evenodd;clip-rule:evenodd;fill:#FFFFFF;}
	.st2{mask:url(#mask-2_1_);}
	.st3{fill-rule:evenodd;clip-rule:evenodd;fill:#8D98AA;}
</style>
<title>1-icon/01公共/04桌面/auto_optimizer</title>
<g id="_x31_-icon_x2F_01公共_x2F_04桌面_x2F_auto_x5F_optimizer">
	<g id="形状结合">
		<path id="path-1_1_" d="M21.2,20c0.4,0,0.8,0.3,0.8,0.8c0,0.4-0.3,0.7-0.6,0.7l-0.1,0H3.8c-0.4,0-0.8-0.3-0.8-0.8
			c0-0.4,0.3-0.7,0.6-0.7l0.1,0H21.2z M20.6,3C21.9,3,23,4.1,23,5.4v2.5L23,8c0,0.4-0.3,0.7-0.7,0.8l-0.1,0c-0.4,0-0.8-0.4-0.8-0.8
			l0,0l0-2.5c0-0.4-0.4-0.8-0.8-0.8H3.4C2.9,4.6,2.6,5,2.6,5.4v11.2c0,0.4,0.4,0.8,0.8,0.8H12h0c0.4,0,0.7,0.3,0.8,0.7l0,0.1
			c0,0.4-0.4,0.8-0.8,0.8H3.4C2.1,19,1,17.9,1,16.6V5.4C1,4.1,2.1,3,3.4,3H20.6z M13.6,9.6c0.9-0.9,2.6-0.4,4.4,0.8
			c1.8-1.3,3.5-1.7,4.4-0.8c0.9,0.9,0.4,2.6-0.8,4.4c1.3,1.8,1.7,3.5,0.8,4.4c-0.9,0.9-2.6,0.4-4.4-0.8c-1.8,1.3-3.5,1.7-4.4,0.8
			c-0.9-0.9-0.4-2.6,0.8-4.4C13.2,12.2,12.7,10.5,13.6,9.6z M20.7,15.3L20.7,15.3c-0.3,0.3-0.5,0.5-0.7,0.7
			c-0.2,0.2-0.5,0.5-0.7,0.7c1.1,0.7,1.9,1,2.1,0.7S21.3,16.4,20.7,15.3z M15.4,15.3L15.4,15.3c-0.7,1.1-1,1.9-0.7,2.1
			c0.2,0.2,1.1-0.1,2.1-0.7c-0.2-0.2-0.5-0.4-0.7-0.7C15.9,15.8,15.7,15.5,15.4,15.3z M18.1,12.4l-0.1,0.1c-0.3,0.2-0.5,0.4-0.8,0.7
			c-0.3,0.3-0.6,0.6-0.8,0.9c0.2,0.3,0.5,0.6,0.8,0.9c0.3,0.3,0.6,0.6,0.9,0.8c0.3-0.2,0.6-0.5,0.9-0.8c0.3-0.3,0.6-0.6,0.8-0.9
			c-0.2-0.3-0.5-0.6-0.8-0.9C18.6,12.9,18.3,12.6,18.1,12.4z M15,6.7L15,6.7c0.3,0.3,0.3,0.6,0.1,0.8l-0.1,0.1l-6.9,6.9
			c-0.2,0.2-0.5,0.2-0.8,0.1l-0.1-0.1l-3.4-3.4c-0.2-0.2-0.2-0.6,0-0.9c0.2-0.2,0.5-0.2,0.8-0.1l0.1,0.1l3,3l6.5-6.5
			C14.4,6.6,14.8,6.6,15,6.7z M16.8,11.4c-1.1-0.7-1.9-1-2.1-0.7c-0.2,0.2,0.1,1.1,0.7,2.1c0.2-0.2,0.4-0.5,0.7-0.7
			C16.3,11.9,16.5,11.7,16.8,11.4L16.8,11.4z M19.4,11.4L19.4,11.4c0.2,0.3,0.4,0.5,0.6,0.7c0.2,0.2,0.5,0.5,0.7,0.7
			c0.7-1.1,1-1.9,0.7-2.1C21.2,10.5,20.4,10.7,19.4,11.4z"/>
	</g>
	<defs>
		<filter id="Adobe_OpacityMaskFilter" filterUnits="userSpaceOnUse" x="0" y="0" width="24" height="24">
			<feColorMatrix  type="matrix" values="1 0 0 0 0  0 1 0 0 0  0 0 1 0 0  0 0 0 1 0"/>
		</filter>
	</defs>
	<mask maskUnits="userSpaceOnUse" x="0" y="0" width="24" height="24" id="mask-2_1_">
		<g class="st0">
			<path id="path-1_2_" class="st1" d="M21.2,20c0.4,0,0.8,0.3,0.8,0.8c0,0.4-0.3,0.7-0.6,0.7l-0.1,0H3.8c-0.4,0-0.8-0.3-0.8-0.8
				c0-0.4,0.3-0.7,0.6-0.7l0.1,0H21.2z M20.6,3C21.9,3,23,4.1,23,5.4v2.5L23,8c0,0.4-0.3,0.7-0.7,0.8l-0.1,0c-0.4,0-0.8-0.4-0.8-0.8
				l0,0l0-2.5c0-0.4-0.4-0.8-0.8-0.8H3.4C2.9,4.6,2.6,5,2.6,5.4v11.2c0,0.4,0.4,0.8,0.8,0.8H12h0c0.4,0,0.7,0.3,0.8,0.7l0,0.1
				c0,0.4-0.4,0.8-0.8,0.8H3.4C2.1,19,1,17.9,1,16.6V5.4C1,4.1,2.1,3,3.4,3H20.6z M13.6,9.6c0.9-0.9,2.6-0.4,4.4,0.8
				c1.8-1.3,3.5-1.7,4.4-0.8c0.9,0.9,0.4,2.6-0.8,4.4c1.3,1.8,1.7,3.5,0.8,4.4c-0.9,0.9-2.6,0.4-4.4-0.8c-1.8,1.3-3.5,1.7-4.4,0.8
				c-0.9-0.9-0.4-2.6,0.8-4.4C13.2,12.2,12.7,10.5,13.6,9.6z M20.7,15.3L20.7,15.3c-0.3,0.3-0.5,0.5-0.7,0.7
				c-0.2,0.2-0.5,0.5-0.7,0.7c1.1,0.7,1.9,1,2.1,0.7S21.3,16.4,20.7,15.3z M15.4,15.3L15.4,15.3c-0.7,1.1-1,1.9-0.7,2.1
				c0.2,0.2,1.1-0.1,2.1-0.7c-0.2-0.2-0.5-0.4-0.7-0.7C15.9,15.8,15.7,15.5,15.4,15.3z M18.1,12.4l-0.1,0.1
				c-0.3,0.2-0.5,0.4-0.8,0.7c-0.3,0.3-0.6,0.6-0.8,0.9c0.2,0.3,0.5,0.6,0.8,0.9c0.3,0.3,0.6,0.6,0.9,0.8c0.3-0.2,0.6-0.5,0.9-0.8
				c0.3-0.3,0.6-0.6,0.8-0.9c-0.2-0.3-0.5-0.6-0.8-0.9C18.6,12.9,18.3,12.6,18.1,12.4z M15,6.7L15,6.7c0.3,0.3,0.3,0.6,0.1,0.8
				l-0.1,0.1l-6.9,6.9c-0.2,0.2-0.5,0.2-0.8,0.1l-0.1-0.1l-3.4-3.4c-0.2-0.2-0.2-0.6,0-0.9c0.2-0.2,0.5-0.2,0.8-0.1l0.1,0.1l3,3
				l6.5-6.5C14.4,6.6,14.8,6.6,15,6.7z M16.8,11.4c-1.1-0.7-1.9-1-2.1-0.7c-0.2,0.2,0.1,1.1,0.7,2.1c0.2-0.2,0.4-0.5,0.7-0.7
				C16.3,11.9,16.5,11.7,16.8,11.4L16.8,11.4z M19.4,11.4L19.4,11.4c0.2,0.3,0.4,0.5,0.6,0.7c0.2,0.2,0.5,0.5,0.7,0.7
				c0.7-1.1,1-1.9,0.7-2.1C21.2,10.5,20.4,10.7,19.4,11.4z"/>
		</g>
	</mask>
	<g id="_x30_-color_x2F_Dark_x2F_3-Text-3Secondary" class="st2">
		<rect id="矩形" class="st3" width="24" height="24"/>
	</g>
</g>
</svg>
