<?xml version="1.0" encoding="UTF-8"?>
<svg width="22px" height="19px" viewBox="0 0 22 19" version="1.1" xmlns="http://www.w3.org/2000/svg" xmlns:xlink="http://www.w3.org/1999/xlink">
    <title>auto</title>
    <defs>
        <path d="M20.2083333,17 C20.6455588,17 21,17.3357864 21,17.75 C21,18.1181898 20.7199477,18.4244126 20.3506364,18.4879165 L20.2083333,18.5 L2.79166667,18.5 C2.35444124,18.5 2,18.1642136 2,17.75 C2,17.3818102 2.28005234,17.0755874 2.64936358,17.0120835 L2.79166667,17 L20.2083333,17 Z M19.6428571,0 C20.9446712,0 22,1.0745166 22,2.4 L22,4.888 L22.0063763,4.98099994 C22.0063763,5.38094614 21.7091743,5.71147708 21.3235747,5.76378817 L21.2163763,5.77099994 C20.7800714,5.77099994 20.4263763,5.41730489 20.4263763,4.98099994 L20.426991,4.94954668 L20.4285714,2.4 C20.4285714,1.9581722 20.0767952,1.6 19.6428571,1.6 L2.35714286,1.6 C1.92320484,1.6 1.57142857,1.9581722 1.57142857,2.4 L1.57142857,13.6 C1.57142857,14.0418278 1.92320484,14.4 2.35714286,14.4 L10.986,14.4 L11,14.4 C11.407841,14.4 11.7444016,14.7051881 11.7937669,15.0996497 L11.8,15.2 C11.8,15.6418278 11.4418278,16 11,16 L2.35714286,16 C1.0553288,16 0,14.9254834 0,13.6 L0,2.4 C0,1.0745166 1.0553288,0 2.35714286,0 L19.6428571,0 Z M12.6338835,6.63388348 C13.5327406,5.73502632 15.243925,6.18649189 17.0531757,7.45703733 C18.8626767,6.18649189 20.5738611,5.73502632 21.4727182,6.63388348 C22.3715754,7.53274064 21.9201098,9.24392505 20.6495644,11.0531757 C21.9201098,12.8626767 22.3715754,14.5738611 21.4727182,15.4727182 C20.5738611,16.3715754 18.8626767,15.9201098 17.053426,14.6495644 C15.243925,15.9201098 13.5327406,16.3715754 12.6338835,15.4727182 C11.7350263,14.5738611 12.1864919,12.8626767 13.4570373,11.053426 C12.1864919,9.24392505 11.7350263,7.53274064 12.6338835,6.63388348 Z M19.6640493,12.2929643 L19.5797075,12.3860603 C19.3943166,12.5913104 19.200106,12.795583 18.9978445,12.9978445 C18.7648183,13.2308707 18.5291227,13.4532106 18.2923383,13.6636885 C19.3513278,14.3444442 20.2016104,14.6225057 20.4120581,14.4120581 C20.6225057,14.2016104 20.3444442,13.3513278 19.6640493,12.2929643 Z M14.4429132,12.2923383 L14.3925125,12.3715734 C13.7486225,13.393245 13.4893323,14.2068468 13.6945436,14.4120581 C13.9049913,14.6225057 14.7552739,14.3444442 15.8136374,13.6640493 C15.577479,13.4532106 15.3417834,13.2308707 15.1087572,12.9978445 C14.875731,12.7648183 14.6533911,12.5291227 14.4429132,12.2923383 Z M17.0536274,9.36001933 L16.9211888,9.47192864 C16.6706228,9.68747826 16.418568,9.92026679 16.1694174,10.1694174 C15.876299,10.4625357 15.6058271,10.7596738 15.3594295,11.0536781 C15.6062588,11.3474021 15.8765329,11.6442999 16.1694174,11.9371843 C16.4625357,12.2303027 16.7596738,12.5007746 17.0536781,12.7471722 C17.3474021,12.500343 17.6442999,12.2300688 17.9371843,11.9371843 C18.2300688,11.6442999 18.500343,11.3474021 18.7465824,11.0536274 C18.5007746,10.7596738 18.2303027,10.4625357 17.9371843,10.1694174 C17.6442999,9.8765329 17.3474021,9.60625876 17.0536274,9.36001933 Z M14.0029195,3.73866902 L14.0861436,3.80796898 C14.2944232,4.0162486 14.314786,4.34233721 14.1491256,4.57984413 L14.0782868,4.66435386 L7.16435386,11.5782868 C6.95221721,11.7904235 6.62570004,11.8167735 6.39119303,11.6554435 L6.30796898,11.5861436 L2.91385643,8.19203102 C2.67954185,7.95771645 2.68305944,7.57429988 2.92171317,7.33564614 C3.13384982,7.12350949 3.46036699,7.09715943 3.694874,7.25848944 L3.77809805,7.3277894 L6.74660053,10.2979159 L13.2297587,3.81582572 C13.4418953,3.60368907 13.7684125,3.577339 14.0029195,3.73866902 Z M15.8136374,8.44255241 C14.7552739,7.76215749 13.9049913,7.48409601 13.6945436,7.69454365 C13.484096,7.90499129 13.7621575,8.75527388 14.4425524,9.81363744 C14.6533911,9.57747905 14.875731,9.34178338 15.1087572,9.10875721 C15.3110187,8.90649573 15.5152913,8.71228511 15.7205414,8.5268942 Z M18.3715734,8.39251247 L18.2923383,8.44291319 C18.5291227,8.65339112 18.7648183,8.87573104 18.9978445,9.10875721 C19.2308707,9.34178338 19.4532106,9.57747905 19.6636885,9.81426341 C20.3444442,8.75527388 20.6225057,7.90499129 20.4120581,7.69454365 C20.2068468,7.48933234 19.393245,7.74862254 18.3715734,8.39251247 Z" id="path-1"></path>
    </defs>
    <g id="onnx-modifier" stroke="none" stroke-width="1" fill="none" fill-rule="evenodd">
        <g id="nav/button/normal备份-7" transform="translate(-13.000000, -15.000000)">
            <g id="auto" transform="translate(13.000000, 15.000000)">
                <mask id="mask-2" fill="white">
                    <use xlink:href="#path-1"></use>
                </mask>
                <use id="形状结合" fill="#000000" fill-rule="nonzero" xlink:href="#path-1"></use>
                <g id="0-color/Dark/3-Text-3Secondary" mask="url(#mask-2)" fill="#8D98AA">
                    <g transform="translate(-1.000000, -3.000000)" id="矩形">
                        <rect x="0" y="0" width="24" height="24"></rect>
                    </g>
                </g>
            </g>
        </g>
    </g>
</svg>