<?xml version="1.0" encoding="UTF-8"?>
<svg width="22px" height="18px" viewBox="0 0 22 18" version="1.1" xmlns="http://www.w3.org/2000/svg" xmlns:xlink="http://www.w3.org/1999/xlink">
    <title>extract to</title>
    <defs>
        <path d="M20.25,9 C20.6181898,9 20.9244126,9.26531274 20.9879165,9.61518655 L21,9.75 L21,15.75 C21,16.9195442 20.1076679,17.880673 18.96669,17.9897001 L18.75,18 L2.25,18 C1.08045582,18 0.119326983,17.1076679 0.0102998671,15.96669 L0,15.75 L0,9.75 C0,9.33578644 0.335786438,9 0.75,9 C1.11818983,9 1.42441256,9.26531274 1.4879165,9.61518655 L1.5,9.75 L1.5,15.75 C1.5,16.1181898 1.76531274,16.4244126 2.11518655,16.4879165 L2.25,16.5 L18.75,16.5 C19.1181898,16.5 19.4244126,16.2346873 19.4879165,15.8848134 L19.5,15.75 L19.5,9.75 C19.5,9.33578644 19.8357864,9 20.25,9 Z M10.1375028,0.132886738 C10.429805,-0.069607339 10.8339416,-0.0406796137 11.0942911,0.219669914 L16.397592,5.52297077 L16.4843752,5.6268426 C16.6868692,5.91914482 16.6579415,6.32328142 16.397592,6.58363094 L16.2937201,6.67041412 C16.0014179,6.8729082 15.5972813,6.84398047 15.3369318,6.58363094 L11.2496602,2.4969944 L11.25,13.7989944 L11.2379165,13.9338078 C11.1744126,14.2836817 10.8681898,14.5489944 10.5,14.5489944 C10.0857864,14.5489944 9.75,14.213208 9.75,13.7989944 L9.74966017,2.6269944 L5.79099026,6.58363094 L5.68711843,6.67041412 C5.39481622,6.8729082 4.99067961,6.84398047 4.73033009,6.58363094 C4.43743687,6.29073773 4.43743687,5.81586399 4.73033009,5.52297077 L10.0336309,0.219669914 Z" id="path-1"></path>
    </defs>
    <g id="onnx-modifier" stroke="none" stroke-width="1" fill="none" fill-rule="evenodd">
        <g id="nav/button/normal备份-4" transform="translate(-13.000000, -15.000000)">
            <g id="extract-to" transform="translate(13.500000, 15.000000)">
                <mask id="mask-2" fill="white">
                    <use xlink:href="#path-1"></use>
                </mask>
                <use id="形状结合" fill="#000000" fill-rule="nonzero" xlink:href="#path-1"></use>
                <g id="0-color/Dark/3Secondary" mask="url(#mask-2)" fill="#8D98AA">
                    <g transform="translate(-1.500000, -3.000000)" id="矩形">
                        <rect x="0" y="0" width="24" height="24"></rect>
                    </g>
                </g>
            </g>
        </g>
    </g>
</svg>