<?xml version="1.0" encoding="utf-8"?>
<!-- Generator: Adobe Illustrator 24.0.1, SVG Export Plug-In . SVG Version: 6.00 Build 0)  -->
<svg version="1.1" id="图层_1" xmlns="http://www.w3.org/2000/svg" xmlns:xlink="http://www.w3.org/1999/xlink" x="0px" y="0px"
	 viewBox="0 0 16 16" style="enable-background:new 0 0 16 16;" xml:space="preserve">
<style type="text/css">
	.st0{filter:url(#Adobe_OpacityMaskFilter);}
	.st1{fill-rule:evenodd;clip-rule:evenodd;fill:#FFFFFF;}
	.st2{mask:url(#mask-2_1_);}
	.st3{fill-rule:evenodd;clip-rule:evenodd;fill:#8D98AA;}
</style>
<title>1-icon/01公共/submit</title>
<g id="_x31_-icon_x2F_01公共_x2F_submit">
	<g id="形状结合">
		<path id="path-1_1_" d="M12.5,1C13.3,1,14,1.7,14,2.5v11c0,0.8-0.7,1.5-1.5,1.5h-9C2.7,15,2,14.3,2,13.5V5c0-0.1,0-0.3,0.1-0.3
			l3.3-3.5C5.5,1.1,5.7,1,5.8,1H12.5z M12.5,2h-6v1.8c0,0.9-0.7,1.6-1.5,1.7l-0.1,0H3v8c0,0.2,0.2,0.4,0.4,0.5l0.1,0h9
			c0.3,0,0.5-0.2,0.5-0.5v-11C13,2.2,12.8,2,12.5,2z M8,4.5L8,4.5C8,4.5,8.1,4.5,8,4.5L8,4.5c0,0,0.1,0,0.1,0c0,0,0,0,0.1,0
			c0,0,0,0,0,0c0,0,0,0,0.1,0c0,0,0,0,0,0c0,0,0,0,0,0l0,0c0,0,0,0,0,0l0,0l2.1,2.1c0.2,0.2,0.2,0.5,0,0.7C10.3,7.6,10,7.7,9.8,7.5
			L9.8,7.5L8.5,6.2V11c0,0.3-0.2,0.5-0.5,0.5c-0.2,0-0.4-0.2-0.5-0.4l0-0.1V6.2L6.2,7.5C6.1,7.6,5.8,7.7,5.6,7.5L5.5,7.5
			C5.4,7.3,5.3,7,5.5,6.8l0.1-0.1l2.1-2.1c0,0,0,0,0.1-0.1L7.6,4.6c0,0,0,0,0.1-0.1c0,0,0,0,0.1,0c0,0,0,0,0,0c0,0,0,0,0.1,0
			c0,0,0,0,0,0C7.9,4.5,7.9,4.5,8,4.5C7.9,4.5,8,4.5,8,4.5C8,4.5,8,4.5,8,4.5z M5.5,2.5l-1.8,2h1.2c0.3,0,0.6-0.2,0.7-0.6l0-0.1V2.5
			z"/>
	</g>
	<defs>
		<filter id="Adobe_OpacityMaskFilter" filterUnits="userSpaceOnUse" x="0" y="0" width="16" height="16">
			<feColorMatrix  type="matrix" values="1 0 0 0 0  0 1 0 0 0  0 0 1 0 0  0 0 0 1 0"/>
		</filter>
	</defs>
	<mask maskUnits="userSpaceOnUse" x="0" y="0" width="16" height="16" id="mask-2_1_">
		<g class="st0">
			<path id="path-1_2_" class="st1" d="M12.5,1C13.3,1,14,1.7,14,2.5v11c0,0.8-0.7,1.5-1.5,1.5h-9C2.7,15,2,14.3,2,13.5V5
				c0-0.1,0-0.3,0.1-0.3l3.3-3.5C5.5,1.1,5.7,1,5.8,1H12.5z M12.5,2h-6v1.8c0,0.9-0.7,1.6-1.5,1.7l-0.1,0H3v8c0,0.2,0.2,0.4,0.4,0.5
				l0.1,0h9c0.3,0,0.5-0.2,0.5-0.5v-11C13,2.2,12.8,2,12.5,2z M8,4.5L8,4.5C8,4.5,8.1,4.5,8,4.5L8,4.5c0,0,0.1,0,0.1,0
				c0,0,0,0,0.1,0c0,0,0,0,0,0c0,0,0,0,0.1,0c0,0,0,0,0,0c0,0,0,0,0,0l0,0c0,0,0,0,0,0l0,0l2.1,2.1c0.2,0.2,0.2,0.5,0,0.7
				C10.3,7.6,10,7.7,9.8,7.5L9.8,7.5L8.5,6.2V11c0,0.3-0.2,0.5-0.5,0.5c-0.2,0-0.4-0.2-0.5-0.4l0-0.1V6.2L6.2,7.5
				C6.1,7.6,5.8,7.7,5.6,7.5L5.5,7.5C5.4,7.3,5.3,7,5.5,6.8l0.1-0.1l2.1-2.1c0,0,0,0,0.1-0.1L7.6,4.6c0,0,0,0,0.1-0.1c0,0,0,0,0.1,0
				c0,0,0,0,0,0c0,0,0,0,0.1,0c0,0,0,0,0,0C7.9,4.5,7.9,4.5,8,4.5C7.9,4.5,8,4.5,8,4.5C8,4.5,8,4.5,8,4.5z M5.5,2.5l-1.8,2h1.2
				c0.3,0,0.6-0.2,0.7-0.6l0-0.1V2.5z"/>
		</g>
	</mask>
	<g id="_x30_-color_x2F_Dark_x2F_3Secondary" class="st2">
		<rect id="矩形" class="st3" width="16" height="16"/>
	</g>
</g>
</svg>
