<?xml version="1.0" encoding="UTF-8"?>
<svg width="22px" height="19px" viewBox="0 0 22 19" version="1.1" xmlns="http://www.w3.org/2000/svg" xmlns:xlink="http://www.w3.org/1999/xlink">
    <title>onnxsim</title>
    <defs>
        <path d="M19.6428571,0 C20.9446712,0 22,1.0745166 22,2.4 L22,13.6 C22,14.9254834 20.9446712,16 19.6428571,16 L2.35714286,16 C1.0553288,16 0,14.9254834 0,13.6 L0,2.4 C0,1.0745166 1.0553288,0 2.35714286,0 Z M19.6428571,1.6 L2.35714286,1.6 C1.92320484,1.6 1.57142857,1.9581722 1.57142857,2.4 L1.57142857,13.6 C1.57142857,14.0418278 1.92320484,14.4 2.35714286,14.4 L19.6428571,14.4 C20.0767952,14.4 20.4285714,14.0418278 20.4285714,13.6 L20.4285714,2.4 C20.4285714,1.9581722 20.0767952,1.6 19.6428571,1.6 Z M17.0029195,3.73866902 L17.0861436,3.80796898 C17.2944232,4.0162486 17.314786,4.34233721 17.1491256,4.57984413 L17.0782868,4.66435386 L10.1643539,11.5782868 C9.95221721,11.7904235 9.62570004,11.8167735 9.39119303,11.6554435 L9.30796898,11.5861436 L5.91385643,8.19203102 C5.67954185,7.95771645 5.68305944,7.57429988 5.92171317,7.33564614 C6.13384982,7.12350949 6.46036699,7.09715943 6.694874,7.25848944 L6.77809805,7.3277894 L9.74660053,10.2979159 L16.2297587,3.81582572 C16.4418953,3.60368907 16.7684125,3.577339 17.0029195,3.73866902 Z M20.2083333,17 C20.6455588,17 21,17.3357864 21,17.75 C21,18.1181898 20.7199477,18.4244126 20.3506364,18.4879165 L20.2083333,18.5 L2.79166667,18.5 C2.35444124,18.5 2,18.1642136 2,17.75 C2,17.3818102 2.28005234,17.0755874 2.64936358,17.0120835 L2.79166667,17 L20.2083333,17 Z" id="path-1"></path>
    </defs>
    <g id="onnx-modifier" stroke="none" stroke-width="1" fill="none" fill-rule="evenodd">
        <g id="nav/button/normal备份-6" transform="translate(-13.000000, -15.000000)">
            <g id="onnxsim" transform="translate(13.000000, 15.000000)">
                <mask id="mask-2" fill="white">
                    <use xlink:href="#path-1"></use>
                </mask>
                <use id="形状结合" fill="#000000" fill-rule="nonzero" xlink:href="#path-1"></use>
                <g id="0-color/Dark/3-Text-3Secondary" mask="url(#mask-2)" fill="#8D98AA">
                    <g transform="translate(-1.000000, -3.000000)" id="矩形">
                        <rect x="0" y="0" width="24" height="24"></rect>
                    </g>
                </g>
            </g>
        </g>
    </g>
</svg>