<?xml version="1.0" encoding="utf-8"?>
<!-- Generator: Adobe Illustrator 24.0.1, SVG Export Plug-In . SVG Version: 6.00 Build 0)  -->
<svg version="1.1" id="图层_1" xmlns="http://www.w3.org/2000/svg" xmlns:xlink="http://www.w3.org/1999/xlink" x="0px" y="0px"
	 viewBox="0 0 24 24" style="enable-background:new 0 0 24 24;" xml:space="preserve">
<style type="text/css">
	.st0{filter:url(#Adobe_OpacityMaskFilter);}
	.st1{fill-rule:evenodd;clip-rule:evenodd;fill:#FFFFFF;}
	.st2{mask:url(#mask-2_1_);}
	.st3{fill-rule:evenodd;clip-rule:evenodd;fill:#8D98AA;}
</style>
<title>1-icon/01公共/04桌面/onnx_sim</title>
<g id="_x31_-icon_x2F_01公共_x2F_04桌面_x2F_onnx_x5F_sim">
	<g id="形状结合">
		<path id="path-1_1_" d="M20.6,3C21.9,3,23,4.1,23,5.4v11.2c0,1.3-1.1,2.4-2.4,2.4H3.4C2.1,19,1,17.9,1,16.6V5.4C1,4.1,2.1,3,3.4,3
			H20.6z M20.6,4.6H3.4C2.9,4.6,2.6,5,2.6,5.4v11.2c0,0.4,0.4,0.8,0.8,0.8h17.3c0.4,0,0.8-0.4,0.8-0.8V5.4C21.4,5,21.1,4.6,20.6,4.6
			z M18,6.7L18,6.7c0.3,0.3,0.3,0.6,0.1,0.8l-0.1,0.1l-6.9,6.9c-0.2,0.2-0.5,0.2-0.8,0.1l-0.1-0.1l-3.4-3.4c-0.2-0.2-0.2-0.6,0-0.9
			c0.2-0.2,0.5-0.2,0.8-0.1l0.1,0.1l3,3l6.5-6.5C17.4,6.6,17.8,6.6,18,6.7z M21.2,20c0.4,0,0.8,0.3,0.8,0.8c0,0.4-0.3,0.7-0.6,0.7
			l-0.1,0H3.8c-0.4,0-0.8-0.3-0.8-0.8c0-0.4,0.3-0.7,0.6-0.7l0.1,0H21.2z"/>
	</g>
	<defs>
		<filter id="Adobe_OpacityMaskFilter" filterUnits="userSpaceOnUse" x="0" y="0" width="24" height="24">
			<feColorMatrix  type="matrix" values="1 0 0 0 0  0 1 0 0 0  0 0 1 0 0  0 0 0 1 0"/>
		</filter>
	</defs>
	<mask maskUnits="userSpaceOnUse" x="0" y="0" width="24" height="24" id="mask-2_1_">
		<g class="st0">
			<path id="path-1_2_" class="st1" d="M20.6,3C21.9,3,23,4.1,23,5.4v11.2c0,1.3-1.1,2.4-2.4,2.4H3.4C2.1,19,1,17.9,1,16.6V5.4
				C1,4.1,2.1,3,3.4,3H20.6z M20.6,4.6H3.4C2.9,4.6,2.6,5,2.6,5.4v11.2c0,0.4,0.4,0.8,0.8,0.8h17.3c0.4,0,0.8-0.4,0.8-0.8V5.4
				C21.4,5,21.1,4.6,20.6,4.6z M18,6.7L18,6.7c0.3,0.3,0.3,0.6,0.1,0.8l-0.1,0.1l-6.9,6.9c-0.2,0.2-0.5,0.2-0.8,0.1l-0.1-0.1
				l-3.4-3.4c-0.2-0.2-0.2-0.6,0-0.9c0.2-0.2,0.5-0.2,0.8-0.1l0.1,0.1l3,3l6.5-6.5C17.4,6.6,17.8,6.6,18,6.7z M21.2,20
				c0.4,0,0.8,0.3,0.8,0.8c0,0.4-0.3,0.7-0.6,0.7l-0.1,0H3.8c-0.4,0-0.8-0.3-0.8-0.8c0-0.4,0.3-0.7,0.6-0.7l0.1,0H21.2z"/>
		</g>
	</mask>
	<g id="_x30_-color_x2F_Dark_x2F_3-Text-3Secondary" class="st2">
		<rect id="矩形" class="st3" width="24" height="24"/>
	</g>
</g>
</svg>
