<?xml version="1.0" encoding="UTF-8"?>
<svg width="23px" height="17px" viewBox="0 0 23 17" version="1.1" xmlns="http://www.w3.org/2000/svg" xmlns:xlink="http://www.w3.org/1999/xlink">
    <title>open</title>
    <defs>
        <path d="M2.75,17 C1.23121694,17 0,15.7687831 0,14.25 L0,2.75 C0,1.23121694 1.23121694,0 2.75,0 L6.33450878,0 C6.92968003,0 7.50878806,0.193088385 7.98486691,0.550268643 L10.9166848,2.74987789 C11.1330843,2.91223255 11.3963152,3 11.6668476,3 L18.1466851,3 C19.1702427,3 20,3.82975734 20,4.85331489 L20,6 L20.0603476,6 C21.5791306,6 22.8103476,7.23121694 22.8103476,8.75 C22.8103476,9.09564932 22.7451853,9.43820046 22.6182744,9.75970797 L20.4472218,15.259708 C20.0326732,16.3098976 19.0183427,17 17.8892949,17 L2.75,17 Z M20.0603476,7.5 L5.86070508,7.5 C5.34750156,7.5 4.8864422,7.8136829 4.69801105,8.29104183 L2.52695842,13.7910418 C2.46927166,13.9371816 2.43965244,14.0928867 2.43965244,14.25 C2.43965244,14.9403559 2.99929651,15.5 3.68965244,15.5 L17.8892949,15.5 C18.4024984,15.5 18.8635578,15.1863171 19.051989,14.7089582 L21.2230416,9.20895817 C21.2807283,9.06281839 21.3103476,8.90711333 21.3103476,8.75 C21.3103476,8.05964406 20.7507035,7.5 20.0603476,7.5 Z M6.33450878,1.5 L2.75,1.5 C2.05964406,1.5 1.5,2.05964406 1.5,2.75 L1.5,12.305 L3.30277822,7.74029203 C3.71732676,6.69010239 4.73165735,6 5.86070508,6 L18.5,6 L18.5,4.85331489 C18.5,4.65818447 18.3418155,4.5 18.1466851,4.5 L11.6668476,4.5 C11.0716763,4.5 10.4925683,4.30691161 10.0164894,3.94973136 L7.08467157,1.75012211 C6.86827209,1.58776745 6.60504117,1.5 6.33450878,1.5 Z" id="path-1"></path>
    </defs>
    <g id="onnx-modifier" stroke="none" stroke-width="1" fill="none" fill-rule="evenodd">
        <g id="nav/button/normal备份" transform="translate(-13.000000, -15.000000)">
            <g id="open" transform="translate(13.000000, 15.000000)">
                <mask id="mask-2" fill="white">
                    <use xlink:href="#path-1"></use>
                </mask>
                <use id="形状" fill="#979797" fill-rule="nonzero" xlink:href="#path-1"></use>
                <g id="0-color/Dark/3-Text-3Secondary" mask="url(#mask-2)" fill="#8D98AA">
                    <g transform="translate(-1.000000, -3.000000)" id="矩形">
                        <rect x="0" y="0" width="24" height="24"></rect>
                    </g>
                </g>
            </g>
        </g>
    </g>
</svg>