<?xml version="1.0" encoding="utf-8"?>
<!-- Generator: Adobe Illustrator 24.0.1, SVG Export Plug-In . SVG Version: 6.00 Build 0)  -->
<svg version="1.1" id="图层_1" xmlns="http://www.w3.org/2000/svg" xmlns:xlink="http://www.w3.org/1999/xlink" x="0px" y="0px"
	 viewBox="0 0 24 24" style="enable-background:new 0 0 24 24;" xml:space="preserve">
<style type="text/css">
	.st0{fill:#979797;}
	.st1{filter:url(#Adobe_OpacityMaskFilter);}
	.st2{fill-rule:evenodd;clip-rule:evenodd;fill:#FFFFFF;}
	.st3{mask:url(#mask-2_1_);}
	.st4{fill-rule:evenodd;clip-rule:evenodd;fill:#8D98AA;}
</style>
<title>1-icon/01公共/04桌面/file</title>
<g id="_x31_-icon_x2F_01公共_x2F_04桌面_x2F_file">
	<g id="形状">
		<path id="path-1_1_" class="st0" d="M3.8,20C2.2,20,1,18.8,1,17.2V5.8C1,4.2,2.2,3,3.8,3h3.6C7.9,3,8.5,3.2,9,3.6l2.9,2.2
			C12.1,5.9,12.4,6,12.7,6h6.5c1,0,1.9,0.8,1.9,1.9V9h0.1c1.5,0,2.8,1.2,2.8,2.8c0,0.3-0.1,0.7-0.2,1l-2.2,5.5
			C21,19.3,20,20,18.9,20H3.8z M21.1,10.5H6.9c-0.5,0-1,0.3-1.2,0.8l-2.2,5.5c-0.1,0.1-0.1,0.3-0.1,0.5c0,0.7,0.6,1.2,1.2,1.2h14.2
			c0.5,0,1-0.3,1.2-0.8l2.2-5.5c0.1-0.1,0.1-0.3,0.1-0.5C22.3,11.1,21.8,10.5,21.1,10.5z M7.3,4.5H3.8c-0.7,0-1.2,0.6-1.2,1.2v9.6
			l1.8-4.6C4.7,9.7,5.7,9,6.9,9h12.6V7.9c0-0.2-0.2-0.4-0.4-0.4h-6.5c-0.6,0-1.2-0.2-1.7-0.6L8.1,4.8C7.9,4.6,7.6,4.5,7.3,4.5z"/>
	</g>
	<defs>
		<filter id="Adobe_OpacityMaskFilter" filterUnits="userSpaceOnUse" x="0" y="0" width="24" height="24">
			<feColorMatrix  type="matrix" values="1 0 0 0 0  0 1 0 0 0  0 0 1 0 0  0 0 0 1 0"/>
		</filter>
	</defs>
	<mask maskUnits="userSpaceOnUse" x="0" y="0" width="24" height="24" id="mask-2_1_">
		<g class="st1">
			<path id="path-1_2_" class="st2" d="M3.8,20C2.2,20,1,18.8,1,17.2V5.8C1,4.2,2.2,3,3.8,3h3.6C7.9,3,8.5,3.2,9,3.6l2.9,2.2
				C12.1,5.9,12.4,6,12.7,6h6.5c1,0,1.9,0.8,1.9,1.9V9h0.1c1.5,0,2.8,1.2,2.8,2.8c0,0.3-0.1,0.7-0.2,1l-2.2,5.5
				C21,19.3,20,20,18.9,20H3.8z M21.1,10.5H6.9c-0.5,0-1,0.3-1.2,0.8l-2.2,5.5c-0.1,0.1-0.1,0.3-0.1,0.5c0,0.7,0.6,1.2,1.2,1.2h14.2
				c0.5,0,1-0.3,1.2-0.8l2.2-5.5c0.1-0.1,0.1-0.3,0.1-0.5C22.3,11.1,21.8,10.5,21.1,10.5z M7.3,4.5H3.8c-0.7,0-1.2,0.6-1.2,1.2v9.6
				l1.8-4.6C4.7,9.7,5.7,9,6.9,9h12.6V7.9c0-0.2-0.2-0.4-0.4-0.4h-6.5c-0.6,0-1.2-0.2-1.7-0.6L8.1,4.8C7.9,4.6,7.6,4.5,7.3,4.5z"/>
		</g>
	</mask>
	<g id="_x30_-color_x2F_Dark_x2F_3-Text-3Secondary" class="st3">
		<rect id="矩形" class="st4" width="24" height="24"/>
	</g>
</g>
</svg>
