<?xml version="1.0" encoding="UTF-8"?>
<svg width="22px" height="22px" viewBox="0 0 22 22" version="1.1" xmlns="http://www.w3.org/2000/svg" xmlns:xlink="http://www.w3.org/1999/xlink">
    <title>reset</title>
    <defs>
        <path d="M18.7517407,1.65178525 C19.1659542,1.65178525 19.5017407,1.98757169 19.5017407,2.40178525 C19.5017407,2.76997509 19.2364279,3.07619781 18.8865541,3.13970175 L18.7517407,3.15178525 L18.0028587,3.15074397 C18.6562132,3.81815447 19.2224129,4.57604544 19.6854061,5.41130729 C22.4968122,10.4832181 20.664311,16.8739092 15.5924002,19.6853152 C13.712856,20.7271636 11.6022645,21.1564671 9.5079275,20.9555778 C9.09560641,20.9160279 8.79341568,20.5497141 8.8329656,20.137393 C8.87251553,19.7250719 9.23882937,19.4228812 9.65115045,19.4624311 C11.44605,19.6345982 13.2529376,19.2670694 14.8651858,18.3733857 C19.2125379,15.963609 20.7832532,10.4858739 18.3734766,6.13852173 C17.8780047,5.24466677 17.2458274,4.45523608 16.502904,3.79088765 L16.5017407,5.40178525 C16.5017407,5.76997509 16.2364279,6.07619781 15.8865541,6.13970175 L15.7517407,6.15178525 C15.3835508,6.15178525 15.0773281,5.88647251 15.0138242,5.5365987 L15.0017407,5.40178525 L15.0017407,2.40178525 C15.0017407,2.03359542 15.2670534,1.7273727 15.6169272,1.66386876 L15.7517407,1.65178525 L18.7517407,1.65178525 Z M11.3131301,0.032168588 C11.7260787,0.0645164963 12.0346164,0.425500583 12.0022685,0.838449113 C11.9699206,1.25139764 11.6089365,1.55993541 11.195988,1.5275875 C9.39835709,1.38677189 7.5981589,1.78577927 6.00175324,2.70746451 C1.69711963,5.19274588 0.222243232,10.6970595 2.70752461,15.0016931 C3.19166076,15.8402416 3.79685375,16.5829278 4.50072326,17.2125713 L4.50174066,15.7517853 C4.50174066,15.3835954 4.76705341,15.0773727 5.11692722,15.0138688 L5.25174066,15.0017853 C5.6199305,15.0017853 5.92615322,15.267098 5.98965716,15.6169718 L6.00174066,15.7517853 L6.00174066,18.7517853 C6.00174066,19.1199751 5.73642792,19.4261978 5.38655411,19.4897017 L5.25174066,19.5017853 L2.25174066,19.5017853 C1.8375271,19.5017853 1.50174066,19.1659988 1.50174066,18.7517853 C1.50174066,18.3835954 1.76705341,18.0773727 2.11692722,18.0138688 L2.25174066,18.0017853 L3.15040036,18.0023913 C2.47703874,17.3417391 1.89080873,16.5870998 1.4084865,15.7516931 C-1.49100844,10.7296206 0.229680694,4.30792134 5.25175324,1.4084264 C7.11282838,0.333934169 9.21560605,-0.132138853 11.3131301,0.032168588 Z" id="path-1"></path>
    </defs>
    <g id="onnx-modifier" stroke="none" stroke-width="1" fill="none" fill-rule="evenodd">
        <g id="nav/button/normal备份-3" transform="translate(-13.000000, -13.000000)">
            <g id="reset" transform="translate(13.498259, 13.498215)">
                <mask id="mask-2" fill="white">
                    <use xlink:href="#path-1"></use>
                </mask>
                <use id="形状结合" fill="#000000" fill-rule="nonzero" xlink:href="#path-1"></use>
                <g id="0-color/Dark/3Secondary" mask="url(#mask-2)" fill="#8D98AA">
                    <g transform="translate(-1.498259, -1.498215)" id="矩形">
                        <rect x="0" y="0" width="24" height="24"></rect>
                    </g>
                </g>
            </g>
        </g>
    </g>
</svg>