<?xml version="1.0" encoding="utf-8"?>
<!-- Generator: Adobe Illustrator 24.0.1, SVG Export Plug-In . SVG Version: 6.00 Build 0)  -->
<svg version="1.1" id="图层_1" xmlns="http://www.w3.org/2000/svg" xmlns:xlink="http://www.w3.org/1999/xlink" x="0px" y="0px"
	 viewBox="0 0 24 24" style="enable-background:new 0 0 24 24;" xml:space="preserve">
<style type="text/css">
	.st0{fill-rule:evenodd;clip-rule:evenodd;fill:#D8D8D8;}
	.st1{filter:url(#Adobe_OpacityMaskFilter);}
	.st2{fill-rule:evenodd;clip-rule:evenodd;fill:#FFFFFF;}
	.st3{mask:url(#mask-2_1_);}
	.st4{fill-rule:evenodd;clip-rule:evenodd;fill:#8D98AA;}
</style>
<title>1-icon/01公共/04桌面/save</title>
<g id="_x31_-icon_x2F_01公共_x2F_04桌面_x2F_save">
	<g id="形状">
		<path id="path-1_1_" class="st0" d="M17.2,2C18.8,2,20,3.2,20,4.8v14.5c0,1.5-1.2,2.8-2.8,2.8H6.8C5.2,22,4,20.8,4,19.2V4.8
			C4,3.2,5.2,2,6.8,2H17.2z M17.2,3.5H17v5.2c0,1-0.8,1.8-1.8,1.8H8.8c-1,0-1.8-0.8-1.8-1.8V3.5H6.8c-0.7,0-1.2,0.6-1.2,1.2v14.5
			c0,0.7,0.6,1.2,1.2,1.2h10.5c0.7,0,1.2-0.6,1.2-1.2V4.8C18.5,4.1,17.9,3.5,17.2,3.5z M15.5,3.5h-7v5.2C8.5,8.9,8.6,9,8.7,9l0.1,0
			h6.5c0.1,0,0.2-0.1,0.2-0.2V3.5z M13.8,5c0.4,0,0.8,0.3,0.8,0.8v1.5c0,0.4-0.3,0.8-0.8,0.8S13,7.7,13,7.2V5.8
			C13,5.3,13.3,5,13.8,5z"/>
	</g>
	<defs>
		<filter id="Adobe_OpacityMaskFilter" filterUnits="userSpaceOnUse" x="0" y="0" width="24" height="24">
			<feColorMatrix  type="matrix" values="1 0 0 0 0  0 1 0 0 0  0 0 1 0 0  0 0 0 1 0"/>
		</filter>
	</defs>
	<mask maskUnits="userSpaceOnUse" x="0" y="0" width="24" height="24" id="mask-2_1_">
		<g class="st1">
			<path id="path-1_2_" class="st2" d="M17.2,2C18.8,2,20,3.2,20,4.8v14.5c0,1.5-1.2,2.8-2.8,2.8H6.8C5.2,22,4,20.8,4,19.2V4.8
				C4,3.2,5.2,2,6.8,2H17.2z M17.2,3.5H17v5.2c0,1-0.8,1.8-1.8,1.8H8.8c-1,0-1.8-0.8-1.8-1.8V3.5H6.8c-0.7,0-1.2,0.6-1.2,1.2v14.5
				c0,0.7,0.6,1.2,1.2,1.2h10.5c0.7,0,1.2-0.6,1.2-1.2V4.8C18.5,4.1,17.9,3.5,17.2,3.5z M15.5,3.5h-7v5.2C8.5,8.9,8.6,9,8.7,9l0.1,0
				h6.5c0.1,0,0.2-0.1,0.2-0.2V3.5z M13.8,5c0.4,0,0.8,0.3,0.8,0.8v1.5c0,0.4-0.3,0.8-0.8,0.8S13,7.7,13,7.2V5.8
				C13,5.3,13.3,5,13.8,5z"/>
		</g>
	</mask>
	<g id="_x30_-color_x2F_Dark_x2F_3-Text-3Secondary" class="st3">
		<rect id="矩形" class="st4" width="24" height="24"/>
	</g>
</g>
</svg>
