<?xml version="1.0" encoding="UTF-8"?>
<svg width="16px" height="20px" viewBox="0 0 16 20" version="1.1" xmlns="http://www.w3.org/2000/svg" xmlns:xlink="http://www.w3.org/1999/xlink">
    <title>save</title>
    <defs>
        <path d="M13.25,0 C14.7687831,0 16,1.23121694 16,2.75 L16,17.25 C16,18.7687831 14.7687831,20 13.25,20 L2.75,20 C1.23121694,20 0,18.7687831 0,17.25 L0,2.75 C0,1.23121694 1.23121694,0 2.75,0 L13.25,0 Z M13.25,1.5 L13,1.5 L13,6.75 C13,7.71649831 12.2164983,8.5 11.25,8.5 L4.75,8.5 C3.78350169,8.5 3,7.71649831 3,6.75 L3,1.5 L2.75,1.5 C2.05964406,1.5 1.5,2.05964406 1.5,2.75 L1.5,17.25 C1.5,17.9403559 2.05964406,18.5 2.75,18.5 L13.25,18.5 C13.9403559,18.5 14.5,17.9403559 14.5,17.25 L14.5,2.75 C14.5,2.05964406 13.9403559,1.5 13.25,1.5 Z M11.5,1.5 L4.5,1.5 L4.5,6.75 C4.5,6.86834673 4.58223341,6.96748682 4.69267729,6.99339732 L4.75,7 L11.25,7 C11.3880712,7 11.5,6.88807119 11.5,6.75 L11.5,1.5 Z M9.75,3 C10.1642136,3 10.5,3.33578644 10.5,3.75 L10.5,5.25 C10.5,5.66421356 10.1642136,6 9.75,6 C9.33578644,6 9,5.66421356 9,5.25 L9,3.75 C9,3.33578644 9.33578644,3 9.75,3 Z" id="path-1"></path>
    </defs>
    <g id="onnx-modifier" stroke="none" stroke-width="1" fill="none" fill-rule="evenodd">
        <g id="nav/button/normal备份-2" transform="translate(-16.000000, -14.000000)">
            <g id="save" transform="translate(16.000000, 14.000000)">
                <mask id="mask-2" fill="white">
                    <use xlink:href="#path-1"></use>
                </mask>
                <use id="形状" fill="#D8D8D8" xlink:href="#path-1"></use>
                <g id="0-color/Dark/3-Text-3Secondary" mask="url(#mask-2)" fill="#8D98AA">
                    <g transform="translate(-4.000000, -2.000000)" id="矩形">
                        <rect x="0" y="0" width="24" height="24"></rect>
                    </g>
                </g>
            </g>
        </g>
    </g>
</svg>