<?xml version="1.0" encoding="utf-8"?>
<!-- Generator: Adobe Illustrator 24.0.1, SVG Export Plug-In . SVG Version: 6.00 Build 0)  -->
<svg version="1.1" id="图层_1" xmlns="http://www.w3.org/2000/svg" xmlns:xlink="http://www.w3.org/1999/xlink" x="0px" y="0px"
	 viewBox="0 0 16 16" style="enable-background:new 0 0 16 16;" xml:space="preserve">
<style type="text/css">
	.st0{fill:#D1D1D1;}
	.st1{fill-rule:evenodd;clip-rule:evenodd;fill:#007AFF;}
	.st2{fill:#242425;}
</style>
<title>icon/ascend/model_inference/model_inference_dark</title>
<g id="icon_x2F_ascend_x2F_model_x5F_inference_x2F_model_x5F_inference_x5F_dark">
	<path id="矩形备份-6" class="st0" d="M13,3c0.6,0,1,0.4,1,1v10c0,0.6-0.4,1-1,1H3c-0.6,0-1-0.4-1-1V4c0-0.6,0.4-1,1-1H13z
		 M13,4H3v10h10V4z"/>
	<path id="矩形备份-4" class="st0" d="M10,1c0.6,0,1,0.4,1,1v1c0,0.6-0.4,1-1,1H6C5.4,4,5,3.6,5,3V2c0-0.6,0.4-1,1-1H10z M10,2
		H6v1h4V2z"/>
	<path id="形状结合" class="st1" d="M11,5v1h1v2h-1v1H9V8H4V6h5V5H11z"/>
	<path id="形状结合_1_" class="st2" d="M11,4.5c0.3,0,0.5,0.2,0.5,0.5v0.5H12c0.2,0,0.5,0.3,0.5,0.5v2c0,0.3-0.2,0.5-0.5,0.5
		h-0.5V9c0,0.2-0.3,0.5-0.5,0.5H9C8.7,9.5,8.5,9.3,8.5,9V8.5H4C3.8,8.5,3.5,8.2,3.5,8V6c0-0.3,0.2-0.5,0.5-0.5h4.5V5
		c0-0.2,0.2-0.5,0.5-0.5H11z M11,5H9v1H4v2h5v1h2V8h1V6h-1V5z"/>
	<path id="形状结合_2_" class="st1" d="M7,9v1h5v2H7v1H5v-1H4v-2h1V9H7z"/>
	<path id="形状结合_3_" class="st2" d="M7,8.5c0.3,0,0.5,0.2,0.5,0.5v0.5H12c0.2,0,0.5,0.3,0.5,0.5v2c0,0.3-0.2,0.5-0.5,0.5H7.5
		V13c0,0.2-0.3,0.5-0.5,0.5H5c-0.3,0-0.5-0.2-0.5-0.5v-0.5H4c-0.2,0-0.5-0.3-0.5-0.5v-2c0-0.3,0.2-0.5,0.5-0.5h0.5V9
		c0-0.2,0.2-0.5,0.5-0.5H7z M7,9H5v1H4v2h1v1h2v-1h5v-2H7V9z"/>
</g>
</svg>
