<?xml version="1.0" encoding="utf-8"?>
<!-- Generator: Adobe Illustrator 24.0.1, SVG Export Plug-In . SVG Version: 6.00 Build 0)  -->
<svg version="1.1" id="图层_1" xmlns="http://www.w3.org/2000/svg" xmlns:xlink="http://www.w3.org/1999/xlink" x="0px" y="0px"
	 viewBox="0 0 16 16" style="enable-background:new 0 0 16 16;" xml:space="preserve">
<style type="text/css">
	.st0{fill-rule:evenodd;clip-rule:evenodd;fill:#EBEBEB;}
	.st1{fill-rule:evenodd;clip-rule:evenodd;fill:#007AFF;}
	.st2{fill:#595959;}
</style>
<title>icons/light/normal/Inference/Model Converter</title>
<g id="icons_x2F_light_x2F_normal_x2F_Inference_x2F_Model-Converter">
	<g id="icon_x2F_ascend_x2F_modelConverter_x2F_modelConverter_x5F_light" transform="translate(0.000000, 0.030613)">
		<g id="编组-2" transform="translate(0.000000, 0.000000)">
			<path id="形状结合" class="st0" d="M6.7,0.6l5.5,2.6c0.2,0.1,0.3,0.3,0.3,0.5v3.8l-1.5,0c-0.2,0-0.4,0.2-0.5,0.4l0,0.1v1.5
				L7,9.5c-0.2,0-0.4,0.2-0.5,0.4l0,0.1l0,3.4c-0.1,0-0.2,0-0.2-0.1l-5.5-2.7c-0.2-0.1-0.3-0.3-0.3-0.4V3.6c0-0.2,0.1-0.4,0.3-0.5
				l5.5-2.6C6.4,0.5,6.6,0.5,6.7,0.6z"/>
			<path id="形状结合_1_" class="st1" d="M6.7,1.1l5,2.4C11.9,3.6,12,3.7,12,3.9v3l-1.5,0c-0.2,0-0.4,0.2-0.5,0.4l0,0.1V9L6.5,9
				C6.3,9,6.1,9.1,6,9.4l0,0.1v3.2l-4.7-2.4C1.1,10.3,1,10.1,1,9.9v-6c0-0.2,0.1-0.4,0.3-0.5l5-2.4C6.4,1,6.6,1,6.7,1.1z M9,4.3
				C8.9,4,8.6,3.9,8.4,4L6.5,4.9C5.4,4.4,4.7,4.1,4.6,4C4.3,3.9,4.1,4.1,4,4.3C3.9,4.5,4,4.8,4.3,4.9c1.3,0.6,1.9,0.9,2,1
				C6.4,6,6.6,6,6.7,5.9c1.2-0.6,1.9-0.9,2-1C9,4.8,9,4.5,9,4.3z"/>
		</g>
		<g id="编组" transform="translate(7.000147, 7.969334)">
			<path id="路径-3" class="st2" d="M4.7,0l3,2c0.1,0,0.1,0.1,0.2,0.1c0,0,0,0,0,0c0,0,0,0,0,0.1c0,0,0,0,0,0c0,0,0,0,0,0.1
				c0,0,0,0,0,0c0,0,0,0,0,0c0,0,0,0,0,0c0,0,0,0,0,0l0,0c0,0,0,0,0,0.1l0-0.1c0,0,0,0.1,0,0.1c0,0,0,0,0,0.1c0,0,0,0,0,0
				c0,0,0,0,0,0.1c0,0,0,0,0,0c0,0,0,0,0,0l0,0c0,0,0,0,0,0l0,0C7.8,2.9,7.6,3,7.5,3l-7,0C0.2,3,0,2.8,0,2.5S0.2,2,0.5,2l5.4,0
				L4.2,0.9C4,0.8,3.9,0.5,4.1,0.2C4.2,0,4.5-0.1,4.7,0z"/>
			<path id="路径-3备份" class="st2" d="M3.3,7l-3-2c-0.1,0-0.1-0.1-0.2-0.1c0,0,0,0,0,0c0,0,0,0,0-0.1c0,0,0,0,0,0
				c0,0,0,0,0-0.1c0,0,0,0,0,0c0,0,0,0,0,0c0,0,0,0,0,0c0,0,0,0,0,0l0,0c0,0,0,0,0-0.1l0,0.1c0,0,0-0.1,0-0.1c0,0,0,0,0-0.1
				c0,0,0,0,0,0c0,0,0,0,0-0.1c0,0,0,0,0,0c0,0,0,0,0,0l0,0c0,0,0,0,0,0l0,0C0.2,4.1,0.4,4,0.5,4l7,0C7.8,4,8,4.2,8,4.5
				C8,4.8,7.8,5,7.5,5L2.1,5l1.6,1.1C4,6.2,4.1,6.6,3.9,6.8C3.8,7,3.5,7.1,3.3,7z"/>
		</g>
	</g>
</g>
</svg>
