<?xml version="1.0" encoding="utf-8"?>
<!-- Generator: Adobe Illustrator 24.0.1, SVG Export Plug-In . SVG Version: 6.00 Build 0)  -->
<svg version="1.1" id="图层_1" xmlns="http://www.w3.org/2000/svg" xmlns:xlink="http://www.w3.org/1999/xlink" x="0px" y="0px"
	 width="24" height="24" viewBox="0 0 16 16" style="enable-background:new 0 0 16 16;" xml:space="preserve">
<style type="text/css">
	.st0{fill-rule:evenodd;clip-rule:evenodd;fill:#242425;}
	.st1{fill-rule:evenodd;clip-rule:evenodd;fill:#007AFF;}
	.st2{fill:#D1D1D1;}
</style>
<title>icons/dark/normal/Inference/Model Converter</title>
<g id="icons_x2F_dark_x2F_normal_x2F_Inference_x2F_Model-Converter">
	<path id="形状结合" class="st0" d="M6.7,0.6l5.5,2.6c0.2,0.1,0.3,0.3,0.3,0.5v3.8l-1.5,0c-0.2,0-0.4,0.2-0.5,0.4l0,0.1v1.5
		L7,9.5c-0.2,0-0.4,0.2-0.5,0.4l0,0.1l0,3.4c-0.1,0-0.2,0-0.2-0.1l-5.5-2.7c-0.2-0.1-0.3-0.3-0.3-0.4V3.7c0-0.2,0.1-0.4,0.3-0.5
		l5.5-2.6C6.4,0.5,6.6,0.5,6.7,0.6z"/>
	<path id="形状结合_1_" class="st1" d="M6.7,1.1l5,2.4C11.9,3.6,12,3.8,12,4v3l-1.5,0c-0.2,0-0.4,0.2-0.5,0.4l0,0.1V9L6.5,9
		C6.3,9,6.1,9.2,6,9.4l0,0.1v3.2l-4.7-2.4C1.1,10.3,1,10.1,1,9.9V4c0-0.2,0.1-0.4,0.3-0.5l5-2.4C6.4,1,6.6,1,6.7,1.1z M9,4.3
		C8.9,4.1,8.6,3.9,8.4,4L6.5,5C5.4,4.4,4.7,4.1,4.6,4C4.3,3.9,4.1,4.1,4,4.3C3.9,4.6,4,4.9,4.3,5c1.3,0.6,1.9,0.9,2,1
		C6.4,6,6.6,6,6.7,6c1.2-0.6,1.9-0.9,2-1C9,4.9,9,4.5,9,4.3z"/>
	<path id="路径-3" class="st2" d="M11.7,8l3,2c0.1,0,0.1,0.1,0.2,0.1c0,0,0,0,0,0c0,0,0,0,0,0.1c0,0,0,0,0,0c0,0,0,0,0,0.1
		c0,0,0,0,0,0c0,0,0,0,0,0c0,0,0,0,0,0c0,0,0,0,0,0l0,0c0,0,0,0,0,0.1l0-0.1c0,0,0,0.1,0,0.1c0,0,0,0,0,0.1c0,0,0,0,0,0
		c0,0,0,0,0,0.1c0,0,0,0,0,0c0,0,0,0,0,0l0,0c0,0,0,0,0,0l0,0c-0.1,0.2-0.3,0.2-0.5,0.2l-7,0C7.2,11,7,10.8,7,10.5S7.2,10,7.5,10
		l5.4,0l-1.6-1.1c-0.2-0.2-0.3-0.5-0.1-0.7C11.2,8,11.5,7.9,11.7,8z"/>
	<path id="路径-3备份" class="st2" d="M10.3,15l-3-2c-0.1,0-0.1-0.1-0.2-0.1c0,0,0,0,0,0c0,0,0,0,0-0.1c0,0,0,0,0,0
		c0,0,0,0,0-0.1c0,0,0,0,0,0c0,0,0,0,0,0c0,0,0,0,0,0c0,0,0,0,0,0l0,0c0,0,0,0,0-0.1l0,0.1c0,0,0-0.1,0-0.1c0,0,0,0,0-0.1
		c0,0,0,0,0,0c0,0,0,0,0-0.1c0,0,0,0,0,0c0,0,0,0,0,0l0,0c0,0,0,0,0,0l0,0C7.2,12.1,7.4,12,7.5,12l7,0c0.3,0,0.5,0.2,0.5,0.5
		S14.8,13,14.5,13l-5.4,0l1.6,1.1c0.2,0.2,0.3,0.5,0.1,0.7C10.8,15,10.5,15.1,10.3,15z"/>
</g>
</svg>
