<?xml version="1.0" encoding="utf-8"?>
<!-- Generator: Adobe Illustrator 24.0.1, SVG Export Plug-In . SVG Version: 6.00 Build 0)  -->
<svg version="1.1" id="图层_1" xmlns="http://www.w3.org/2000/svg" xmlns:xlink="http://www.w3.org/1999/xlink" x="0px" y="0px"
	 width="24" height="24" viewBox="0 0 16 16" style="enable-background:new 0 0 16 16;" xml:space="preserve">
<style type="text/css">
	.st0{fill:#EBEBEB;}
	.st1{fill:#007AFF;}
	.st2{fill:#595959;}
</style>
<title>icons/light/normal/Inference/Model Analyse</title>
<g id="icons_x2F_light_x2F_normal_x2F_Inference_x2F_Model-Analyse">
	<g id="编组" transform="translate(2.000000, 1.000000)">
		<path id="路径" class="st0" d="M6.5,6.1L3.9,7.4L2.8,7.1C2.2,6.8,1.5,7.3,1.5,8v1.5c0,0.4,0.2,0.7,0.5,0.9l3.5,2
			c0.3,0.2,0.7,0.2,1,0l3.5-2c0.3-0.2,0.5-0.5,0.5-0.9V8c0-0.4-0.3-0.8-0.6-0.9l-2.5-1C7.1,6,6.8,6,6.5,6.1z"/>
		<path id="路径_1_" class="st1" d="M6.7,6.6c0.1-0.1,0.2-0.1,0.3,0l0.1,0l2.5,1C9.8,7.6,10,7.7,10,7.9L10,8v1.5
			c0,0.1-0.1,0.3-0.2,0.4L9.7,9.9l-3.5,2C6.1,12,6,12,5.8,12l-0.1,0l-3.5-2C2.1,9.9,2,9.7,2,9.6l0-0.1V8c0-0.3,0.3-0.5,0.6-0.5
			l0.1,0L4,8L6.7,6.6z"/>
		<path id="形状备份-3" class="st2" d="M1.8,2.9c0.1,0.2,0.1,0.5-0.2,0.7L1.2,3.8C1.1,3.9,1,4,1,4.2l0,5.6
			c0,0.1,0.1,0.3,0.2,0.4l4.6,2.8c0.1,0.1,0.3,0,0.5,0l2.3-1.3c0.2-0.1,0.5-0.1,0.6,0.2C9.3,12,9.2,12.2,9,12.4l-2.4,1.4
			c-0.4,0.2-0.8,0.3-1.2,0.1L0.7,11C0.3,10.8,0,10.4,0,9.9l0-5.7c0-0.5,0.3-1,0.7-1.2l0.5-0.3C1.4,2.5,1.7,2.6,1.8,2.9z M11.3,3
			C11.7,3.2,12,3.6,12,4.1l0,5.7c0,0.5-0.2,0.9-0.6,1.2l-0.6,0.4c-0.2,0.1-0.5,0.1-0.6-0.2c-0.1-0.2-0.1-0.5,0.1-0.6l0.5-0.3
			C10.9,10.1,11,10,11,9.9l0-5.7c0-0.1-0.1-0.3-0.2-0.4L6.2,1.1C6.1,1,5.9,1,5.8,1.1L3.5,2.4C3.3,2.5,3,2.4,2.9,2.2
			C2.7,2,2.8,1.7,3,1.6l2.3-1.4C5.7,0,6.1-0.1,6.4,0.1L11.3,3z"/>
	</g>
	<path id="路径_2_" class="st2" d="M6.7,4.1l1.5,1c0.2,0.1,0.3,0.5,0.1,0.7C8.3,6,8,6.1,7.8,6l-1.6-1C6,4.8,5.9,4.5,6.1,4.2
		C6.2,4,6.5,3.9,6.7,4.1z"/>
	<path id="路径备份" class="st2" d="M9.3,4l-1.5,1C7.5,5.2,7.5,5.5,7.6,5.8C7.8,6,8,6.1,8.2,6l1.6-1.1c0.2-0.1,0.3-0.5,0.1-0.7
		C9.8,4,9.5,3.9,9.3,4z"/>
</g>
</svg>
