<?xml version="1.0" encoding="UTF-8"?>
<svg width="27px" height="20px" viewBox="0 0 27 20" version="1.1" xmlns="http://www.w3.org/2000/svg" xmlns:xlink="http://www.w3.org/1999/xlink">
    <!-- Generator: Sketch 53.2 (72643) - https://sketchapp.com -->
    <title>op-switchopen复制 copy 5</title>
    <desc>Created with Sketch.</desc>
    <defs>
        <path d="M17,13 C20.3137085,13 23,10.3137085 23,7 C23,3.6862915 20.3137085,1 17,1 C13.6862915,1 11,3.6862915 11,7 C11,10.3137085 13.6862915,13 17,13 Z" id="path-1"></path>
        <filter x="-54.2%" y="-45.8%" width="208.3%" height="208.3%" filterUnits="objectBoundingBox" id="filter-2">
            <feOffset dx="0" dy="1" in="SourceAlpha" result="shadowOffsetOuter1"></feOffset>
            <feGaussianBlur stdDeviation="2" in="shadowOffsetOuter1" result="shadowBlurOuter1"></feGaussianBlur>
            <feColorMatrix values="0 0 0 0 0   0 0 0 0 0   0 0 0 0 0  0 0 0 0.2 0" type="matrix" in="shadowBlurOuter1"></feColorMatrix>
        </filter>
    </defs>
    <g id="Profilling" stroke="none" stroke-width="1" fill="none" fill-rule="evenodd">
        <g id="Profiling弹窗-白色版-02-展开" transform="translate(-814.000000, -697.000000)">
            <g id="分组-47" transform="translate(580.000000, 87.000000)">
                <g id="分组-26" transform="translate(35.000000, 203.000000)">
                    <g id="分组-22-copy" transform="translate(20.000000, 407.000000)">
                        <g id="op-switchopen" transform="translate(179.000000, 2.000000)">
                            <g id="Group">
                                <path d="M7,0 L17,0 C20.8659932,-7.10171439e-16 24,3.13400675 24,7 L24,7 C24,10.8659932 20.8659932,14 17,14 L7,14 C3.13400675,14 4.73447626e-16,10.8659932 0,7 L0,7 C-4.73447626e-16,3.13400675 3.13400675,7.10171439e-16 7,0 Z" id="Rectangle-62-Copy" fill-opacity="0.9" fill="#6697FC"></path>
                                <g id="Oval-14-Copy">
                                    <use fill="black" fill-opacity="1" filter="url(#filter-2)" xlink:href="#path-1"></use>
                                    <use fill="#FFFFFF" fill-rule="evenodd" xlink:href="#path-1"></use>
                                </g>
                            </g>
                        </g>
                    </g>
                </g>
            </g>
        </g>
    </g>
</svg>