<?xml version="1.0" encoding="UTF-8"?>
<svg width="27px" height="20px" viewBox="0 0 27 20" version="1.1" xmlns="http://www.w3.org/2000/svg" xmlns:xlink="http://www.w3.org/1999/xlink">
    <!-- Generator: Sketch 53.2 (72643) - https://sketchapp.com -->
    <title>op-switchclose copy 9</title>
    <desc>Created with Sketch.</desc>
    <defs>
        <path d="M7,12 C9.76142375,12 12,9.76142375 12,7 C12,4.23857625 9.76142375,2 7,2 C4.23857625,2 2,4.23857625 2,7 C2,9.76142375 4.23857625,12 7,12 Z" id="path-1"></path>
        <filter x="-65.0%" y="-55.0%" width="230.0%" height="230.0%" filterUnits="objectBoundingBox" id="filter-2">
            <feOffset dx="0" dy="1" in="SourceAlpha" result="shadowOffsetOuter1"></feOffset>
            <feGaussianBlur stdDeviation="2" in="shadowOffsetOuter1" result="shadowBlurOuter1"></feGaussianBlur>
            <feColorMatrix values="0 0 0 0 0   0 0 0 0 0   0 0 0 0 0  0 0 0 0.2 0" type="matrix" in="shadowBlurOuter1"></feColorMatrix>
        </filter>
    </defs>
    <g id="Profilling" stroke="none" stroke-width="1" fill="none" fill-rule="evenodd">
        <g id="Profiling弹窗-白色版-02-展开" transform="translate(-811.000000, -553.000000)">
            <g id="分组-47" transform="translate(580.000000, 87.000000)">
                <g id="分组-26" transform="translate(35.000000, 203.000000)">
                    <g id="op-switchclose" transform="translate(198.000000, 264.000000)">
                        <g id="分组">
                            <g id="Group-26" fill="#FFFFFF" stroke="#777777">
                                <g id="Group-25">
                                    <path d="M7,0.5 C3.41014913,0.5 0.5,3.41014913 0.5,7 C0.5,10.5898509 3.41014913,13.5 7,13.5 L17,13.5 C20.5898509,13.5 23.5,10.5898509 23.5,7 C23.5,3.41014913 20.5898509,0.5 17,0.5 L7,0.5 Z" id="Rectangle-62-Copy"></path>
                                </g>
                            </g>
                            <g id="Oval-14-Copy">
                                <use fill="black" fill-opacity="1" filter="url(#filter-2)" xlink:href="#path-1"></use>
                                <use fill="#777777" fill-rule="evenodd" xlink:href="#path-1"></use>
                            </g>
                        </g>
                    </g>
                </g>
            </g>
        </g>
    </g>
</svg>