<?xml version="1.0" encoding="utf-8"?>
<!-- Generator: Adobe Illustrator 24.0.1, SVG Export Plug-In . SVG Version: 6.00 Build 0)  -->
<svg version="1.1" id="图层_1" xmlns="http://www.w3.org/2000/svg" xmlns:xlink="http://www.w3.org/1999/xlink" x="0px" y="0px"
	 viewBox="0 0 16 16" style="enable-background:new 0 0 16 16;" xml:space="preserve">
<style type="text/css">
	.st0{fill-rule:evenodd;clip-rule:evenodd;fill:#EBEBEB;}
	.st1{fill-rule:evenodd;clip-rule:evenodd;fill:#007AFF;}
	.st2{fill:#595959;}
</style>
<title>icons/light/normal/Inference/System Profiler</title>
<g id="icons_x2F_light_x2F_normal_x2F_Inference_x2F_System-Profiler">
	<g id="编组-4" transform="translate(1.000000, 0.500000)">
		<g id="编组" transform="translate(0.772727, 1.000000)">
			<g id="编组-3" transform="translate(0.727273, 0.000000)">
				<path id="矩形" class="st0" d="M0.5,1h11C11.8,1,12,1.2,12,1.5v3C12,4.8,11.8,5,11.5,5h-11C0.2,5,0,4.8,0,4.5v-3
					C0,1.2,0.2,1,0.5,1z"/>
				<path id="矩形_1_" class="st0" d="M7.3,0h2.4C9.9,0,10,0.1,10,0.3v5.4C10,5.9,9.9,6,9.7,6H7.3C7.1,6,7,5.9,7,5.7V0.3
					C7,0.1,7.1,0,7.3,0z"/>
			</g>
			
				<g id="编组-3_1_" transform="translate(6.727273, 9.000000) scale(-1, 1) translate(-6.727273, -9.000000) translate(0.727273, 6.000000)">
				<path id="矩形_2_" class="st0" d="M0.5,1h11C11.8,1,12,1.2,12,1.5v3C12,4.8,11.8,5,11.5,5h-11C0.2,5,0,4.8,0,4.5v-3
					C0,1.2,0.2,1,0.5,1z"/>
				<path id="矩形_3_" class="st0" d="M6.3,0h2.4C8.9,0,9,0.1,9,0.3v5.4C9,5.9,8.9,6,8.7,6H6.3C6.1,6,6,5.9,6,5.7V0.3
					C6,0.1,6.1,0,6.3,0z"/>
			</g>
			<g id="编组-3备份" transform="translate(1.227273, 0.500000)">
				<path id="矩形_4_" class="st1" d="M0.5,1h10C10.8,1,11,1.2,11,1.5v2C11,3.8,10.8,4,10.5,4h-10C0.2,4,0,3.8,0,3.5v-2
					C0,1.2,0.2,1,0.5,1z"/>
				<path id="矩形_5_" class="st1" d="M7.3,0h1.4C8.9,0,9,0.1,9,0.3v4.4C9,4.9,8.9,5,8.7,5H7.3C7.1,5,7,4.9,7,4.7V0.3
					C7,0.1,7.1,0,7.3,0z"/>
			</g>
			<g id="编组-2" transform="translate(1.227273, 6.500000)">
				<path id="矩形备份-2" class="st1" d="M0.3,1h10.4C10.9,1,11,1.1,11,1.3v2.4C11,3.9,10.9,4,10.7,4H0.3C0.1,4,0,3.9,0,3.7V1.3
					C0,1.1,0.1,1,0.3,1z"/>
				<path id="矩形备份-3" class="st1" d="M3.3,0h1.4C4.9,0,5,0.1,5,0.3v4.4C5,4.9,4.9,5,4.7,5H3.3C3.1,5,3,4.9,3,4.7V0.3
					C3,0.1,3.1,0,3.3,0z"/>
			</g>
		</g>
		<path id="直线-11" class="st2" d="M0.5,0.5c0.2,0,0.4,0.2,0.5,0.4L1,1v12.5h12.5c0.2,0,0.4,0.2,0.5,0.4l0,0.1
			c0,0.2-0.2,0.4-0.4,0.5l-0.1,0h-13c-0.2,0-0.4-0.2-0.5-0.4L0,14V1C0,0.7,0.2,0.5,0.5,0.5z"/>
	</g>
</g>
</svg>
