<?xml version="1.0" encoding="utf-8"?>
<!-- Generator: Adobe Illustrator 24.0.1, SVG Export Plug-In . SVG Version: 6.00 Build 0)  -->
<svg version="1.1" id="图层_1" xmlns="http://www.w3.org/2000/svg" xmlns:xlink="http://www.w3.org/1999/xlink" x="0px" y="0px"
	 viewBox="0 0 16 16" style="enable-background:new 0 0 16 16;" xml:space="preserve">
<style type="text/css">
	.st0{fill-rule:evenodd;clip-rule:evenodd;fill:#242425;}
	.st1{fill-rule:evenodd;clip-rule:evenodd;fill:#007AFF;}
	.st2{fill:#D1D1D1;}
</style>
<title>icons/dark/normal/Inference/System Profiler</title>
<g id="icons_x2F_dark_x2F_normal_x2F_Inference_x2F_System-Profiler">
	<path id="矩形" class="st0" d="M3,2.5h11c0.3,0,0.5,0.2,0.5,0.5v3c0,0.3-0.2,0.5-0.5,0.5H3C2.7,6.5,2.5,6.3,2.5,6V3
		C2.5,2.7,2.7,2.5,3,2.5z"/>
	<path id="矩形_1_" class="st0" d="M9.8,1.5h2.4c0.2,0,0.3,0.1,0.3,0.3v5.4c0,0.2-0.1,0.3-0.3,0.3H9.8c-0.2,0-0.3-0.1-0.3-0.3V1.8
		C9.5,1.6,9.6,1.5,9.8,1.5z"/>
	<path id="矩形_2_" class="st0" d="M14,8.5H3C2.7,8.5,2.5,8.7,2.5,9v3c0,0.3,0.2,0.5,0.5,0.5h11c0.3,0,0.5-0.2,0.5-0.5V9
		C14.5,8.7,14.3,8.5,14,8.5z"/>
	<path id="矩形_3_" class="st0" d="M8.2,7.5H5.8c-0.2,0-0.3,0.1-0.3,0.3v5.4c0,0.2,0.1,0.3,0.3,0.3h2.4c0.2,0,0.3-0.1,0.3-0.3V7.8
		C8.5,7.6,8.4,7.5,8.2,7.5z"/>
	<path id="矩形_4_" class="st1" d="M3.5,3h10C13.8,3,14,3.2,14,3.5v2C14,5.8,13.8,6,13.5,6h-10C3.2,6,3,5.8,3,5.5v-2
		C3,3.2,3.2,3,3.5,3z"/>
	<path id="矩形_5_" class="st1" d="M10.3,2h1.4C11.9,2,12,2.1,12,2.3v4.4C12,6.9,11.9,7,11.7,7h-1.4C10.1,7,10,6.9,10,6.7V2.3
		C10,2.1,10.1,2,10.3,2z"/>
	<path id="矩形备份-2" class="st1" d="M3.3,9h10.4C13.9,9,14,9.1,14,9.3v2.4c0,0.2-0.1,0.3-0.3,0.3H3.3C3.1,12,3,11.9,3,11.7
		V9.3C3,9.1,3.1,9,3.3,9z"/>
	<path id="矩形备份-3" class="st1" d="M6.3,8h1.4C7.9,8,8,8.1,8,8.3v4.4C8,12.9,7.9,13,7.7,13H6.3C6.1,13,6,12.9,6,12.7V8.3
		C6,8.1,6.1,8,6.3,8z"/>
	<path id="直线-11" class="st2" d="M1.5,1C1.7,1,1.9,1.2,2,1.4l0,0.1V14h12.5c0.2,0,0.4,0.2,0.5,0.4l0,0.1c0,0.2-0.2,0.4-0.4,0.5
		l-0.1,0h-13c-0.2,0-0.4-0.2-0.5-0.4l0-0.1v-13C1,1.2,1.2,1,1.5,1z"/>
</g>
</svg>
