<?xml version="1.0" encoding="utf-8"?>
<!-- Generator: Adobe Illustrator 24.0.1, SVG Export Plug-In . SVG Version: 6.00 Build 0)  -->
<svg version="1.1" id="图层_1" xmlns="http://www.w3.org/2000/svg" xmlns:xlink="http://www.w3.org/1999/xlink" x="0px" y="0px"
	 viewBox="0 0 16 16" style="enable-background:new 0 0 16 16;" xml:space="preserve">
<style type="text/css">
	.st0{fill:#D1D1D1;}
	.st1{fill:#242425;}
	.st2{fill:#007AFF;}
</style>
<title>icons/dark/normal/Inference/ais_bench</title>
<g id="icons_x2F_dark_x2F_normal_x2F_Inference_x2F_ais_x5F_bench">
	<path id="路径-25" class="st0" d="M12,10v1H8v1.5c0,0.6-0.4,1-1,1H3v-1h4V11c0-0.6,0.4-1,1-1H12z"/>
	<polygon id="路径-53" class="st0" points="2.5,8.5 12,8.5 12,7.5 2.5,7.5 	"/>
	<path id="路径-54" class="st0" d="M7,2.5c0.6,0,1,0.4,1,1V5h4v1H8C7.4,6,7,5.6,7,5V3.5H3.5v-1H7z"/>
	<path id="路径" class="st1" d="M5.5,8c0,1.4-1.1,2.5-2.5,2.5S0.5,9.4,0.5,8S1.6,5.5,3,5.5S5.5,6.6,5.5,8z"/>
	<path id="路径_1_" class="st2" d="M5,8c0-1.1-0.9-2-2-2S1,6.9,1,8s0.9,2,2,2S5,9.1,5,8z"/>
	<path id="路径_2_" class="st1" d="M5.5,3c0,1.4-1.1,2.5-2.5,2.5S0.5,4.4,0.5,3S1.6,0.5,3,0.5S5.5,1.6,5.5,3z"/>
	<path id="路径_3_" class="st2" d="M5,3c0-1.1-0.9-2-2-2S1,1.9,1,3s0.9,2,2,2S5,4.1,5,3z"/>
	<path id="路径_4_" class="st1" d="M5.5,13c0,1.4-1.1,2.5-2.5,2.5S0.5,14.4,0.5,13s1.1-2.5,2.5-2.5S5.5,11.6,5.5,13z"/>
	<path id="路径_5_" class="st2" d="M5,13c0-1.1-0.9-2-2-2s-2,0.9-2,2s0.9,2,2,2S5,14.1,5,13z"/>
	<path id="矩形" class="st0" d="M14.5,2C14.8,2,15,2.2,15,2.5v11c0,0.3-0.2,0.5-0.5,0.5h-3c-0.3,0-0.5-0.2-0.5-0.5v-11
		C11,2.2,11.2,2,11.5,2H14.5z M14,3h-2v10h2V3z"/>
</g>
</svg>
