<?xml version="1.0" encoding="utf-8"?>
<!-- Generator: Adobe Illustrator 24.0.1, SVG Export Plug-In . SVG Version: 6.00 Build 0)  -->
<svg version="1.1" id="图层_1" xmlns="http://www.w3.org/2000/svg" xmlns:xlink="http://www.w3.org/1999/xlink" x="0px" y="0px"
	 viewBox="0 0 16 16" style="enable-background:new 0 0 16 16;" xml:space="preserve">
<style type="text/css">
	.st0{fill:#D1D1D1;}
	.st1{fill:#242425;}
	.st2{fill-rule:evenodd;clip-rule:evenodd;fill:#007AFF;}
</style>
<title>icons/dark/normal/Inference/compare</title>
<g id="icons_x2F_dark_x2F_normal_x2F_Inference_x2F_compare">
	<path id="形状" class="st0" d="M7.7,3.9C7.4,3.7,7,3.9,7,4.3v7.4c0,0.4,0.4,0.6,0.7,0.4l3-1.7c0.2-0.1,0.3-0.3,0.3-0.4V6
		c0-0.2-0.1-0.3-0.3-0.4L7.7,3.9z M8,5.2l2,1.1v3.4l-2,1.1V5.2z"/>
	<path id="路径" class="st0" d="M7.8,1.1C7.9,1,8.1,1,8.2,1.1l5.5,3C13.9,4.2,14,4.3,14,4.5v6.9c0,0.2-0.1,0.4-0.3,0.4l-5.5,3
		c-0.1,0.1-0.3,0.1-0.5,0l-1.3-0.7V1.8L7.8,1.1z M8,2.1L7.5,2.4v11.2L8,13.9l5-2.7V4.8L8,2.1z"/>
	<path id="路径_1_" class="st1" d="M8.5,0.6v14.9H8c-0.2,0-0.3,0-0.5-0.1l-5.5-3c-0.3-0.2-0.5-0.5-0.5-0.9V4.5
		c0-0.4,0.2-0.7,0.5-0.9l5.5-3C7.7,0.6,7.8,0.6,8,0.6H8.5z"/>
	<path id="路径_2_" class="st2" d="M8,1.1v13.9c-0.1,0-0.2,0-0.2-0.1l-5.5-3C2.1,11.8,2,11.7,2,11.5V4.5c0-0.2,0.1-0.4,0.3-0.4
		l5.5-3C7.8,1.1,7.9,1.1,8,1.1z"/>
</g>
</svg>
